<svg xmlns="http://www.w3.org/2000/svg" version="1.1" width="1280" height="720" viewBox="0 0 1280 720">
  <rect x="0" y="0" width="1280" height="720" fill="#FFFFFF"/>
  <g id="chapter-footer">
    <rect x="80" y="666" width="82" height="27" fill="#E1251B" stroke="none"/>
    <path d="M 115 676 C 114 676 113 676 112 677 C 112 677 112 677 112 677 C 112 676 112 676 112 676 C 109 676 109 676 109 676 C 109 686 109 686 109 686 C 112 686 112 686 112 686 C 112 680 112 680 112 680 C 112 679 113 678 114 678 C 116 678 117 679 117 680 C 117 686 117 686 117 686 C 120 686 120 686 120 686 C 120 680 120 680 120 680 C 120 677 118 676 115 676" fill="#FFFFFF" stroke="none"/>
    <path d="M 140 676 L 137 683 L 135 676 L 132 676 L 136 686 L 139 686 L 143 676 L 140 676 Z" fill="#FFFFFF" stroke="none"/>
    <path d="M 106 683 C 105 684 104 684 103 684 C 102 684 101 684 101 683 C 108 680 108 680 108 680 C 108 679 107 678 107 677 C 106 676 104 676 103 676 C 100 676 97 678 97 681 C 97 684 100 686 103 686 C 105 686 107 685 108 684 L 106 683 Z M 101 679 C 101 678 102 678 103 678 C 104 678 105 679 105 679 C 100 681 100 681 100 681 C 100 680 100 680 101 679 Z" fill="#FFFFFF" stroke="none"/>
    <path d="M 97 684 L 90 684 L 90 673 L 87 673 L 87 686 L 97 686 L 97 684 Z" fill="#FFFFFF" stroke="none"/>
    <path d="M 148 686 C 145 686 143 684 143 681 C 143 678 145 676 149 676 C 152 676 154 678 154 681 C 154 684 152 686 148 686 M 148 678 C 147 678 146 679 146 681 C 146 683 147 684 149 684 C 150 684 151 683 151 681 C 151 679 150 678 148 678" fill="#FFFFFF" stroke="none"/>
    <path d="M 126 686 C 123 686 121 684 121 681 C 121 678 123 676 126 676 C 130 676 132 678 132 681 C 132 684 130 686 126 686 M 126 678 C 125 678 124 679 124 681 C 124 683 125 684 126 684 C 128 684 129 683 129 681 C 129 679 128 678 126 678" fill="#FFFFFF" stroke="none"/>
    <text x="168" y="683" text-anchor="start" font-family="Arial, Microsoft YaHei, sans-serif" font-size="13" fill="#000000">2026 Lenovo Internal. All rights reserved.</text>
  </g>
  <g id="chapter-title">
    <text x="80" y="235" text-anchor="start" font-family="Arial, Microsoft YaHei, sans-serif" font-size="80" fill="#0D0D0D" font-weight="bold" letter-spacing="-2">
      {{CHAPTER_TITLE}}
    </text>
  </g>
  <g id="chapter-subtitle">
    <text x="80" y="455" text-anchor="start" font-family="Arial, Microsoft YaHei, sans-serif" font-size="27" fill="#0D0D0D" fill-opacity="0.7">
      {{CHAPTER_DESC}}
    </text>
  </g>
  <g id="chapter-pagenum">
    <text x="1248" y="688" text-anchor="middle" font-family="Arial, Microsoft YaHei, sans-serif" font-size="13" fill="#0D0D0D">{{PAGE_NUM}}</text>
  </g>
</svg>
