<?xml version='1.0' encoding='utf-8'?>
<svg xmlns="http://www.w3.org/2000/svg" data-icon-style="preserve-color" viewBox="0 0 1279.67 720" width="1279.67" height="720"><g id="starter-layered_layout_01_slideLayout1_ill02_layout-shape-22" data-name="Freeform 5">
<path d="M 184.97 86.93 C 179.36 86.93 175.55 91.61 175.55 97.12 C 175.55 97.12 175.55 97.12 175.55 97.12 C 175.55 103.23 179.76 107.3 185.57 107.3 C 189.18 107.3 191.58 105.88 193.39 103.64 C 190.38 100.78 190.38 100.78 190.38 100.78 C 188.78 102.21 187.58 102.82 185.57 102.82 C 183.17 102.82 181.56 101.6 180.96 98.95 C 194.39 98.95 194.39 98.95 194.39 98.95 C 194.39 98.54 194.39 97.93 194.39 97.52 C 194.39 92.02 191.58 86.93 184.97 86.93 Z M 180.96 95.49 C 181.36 93.04 182.77 91.41 184.97 91.41 C 187.37 91.41 188.78 93.04 189.18 95.49 L 180.96 95.49 Z M 201 91.21 C 201 87.34 201 87.34 201 87.34 C 195.59 87.34 195.59 87.34 195.59 87.34 C 195.59 106.9 195.59 106.9 195.59 106.9 C 201 106.9 201 106.9 201 106.9 C 201 99.76 201 99.76 201 99.76 C 201 95.08 203.2 92.84 207.01 92.84 C 207.21 92.84 207.21 92.84 207.21 92.84 C 207.21 86.93 207.21 86.93 207.21 86.93 C 204.01 86.72 202.2 88.56 201 91.21 Z M 487.13 80.2 C 487.13 106.9 487.13 106.9 487.13 106.9 C 492.54 106.9 492.54 106.9 492.54 106.9 C 492.54 80.2 492.54 80.2 492.54 80.2 L 487.13 80.2 Z M 225.64 82.24 C 220.24 82.24 220.24 82.24 220.24 82.24 C 220.24 87.34 220.24 87.34 220.24 87.34 C 217.83 87.34 217.83 87.34 217.83 87.34 C 217.83 92.02 217.83 92.02 217.83 92.02 C 220.24 92.02 220.24 92.02 220.24 92.02 C 220.24 101.39 220.24 101.39 220.24 101.39 C 220.24 105.88 222.44 107.3 225.85 107.3 C 227.65 107.3 229.05 106.9 230.05 106.08 C 230.05 101.6 230.05 101.6 230.05 101.6 C 229.45 102.01 228.45 102.41 227.45 102.41 C 226.25 102.41 225.64 101.8 225.64 100.38 C 225.64 92.02 225.64 92.02 225.64 92.02 C 230.25 92.02 230.25 92.02 230.25 92.02 C 230.25 87.34 230.25 87.34 230.25 87.34 C 225.64 87.34 225.64 87.34 225.64 87.34 L 225.64 82.24 Z M 479.31 106.9 C 484.92 106.9 484.92 106.9 484.92 106.9 C 484.92 80.2 484.92 80.2 484.92 80.2 C 479.31 80.2 479.31 80.2 479.31 80.2 L 479.31 106.9 Z M 240.47 86.93 C 234.86 86.93 231.05 91.61 231.05 97.12 C 231.05 97.12 231.05 97.12 231.05 97.12 C 231.05 103.23 235.26 107.3 241.07 107.3 C 244.48 107.3 247.08 105.88 248.89 103.64 C 245.88 100.78 245.88 100.78 245.88 100.78 C 244.28 102.21 243.08 102.82 241.07 102.82 C 238.67 102.82 237.07 101.6 236.46 98.95 C 249.89 98.95 249.89 98.95 249.89 98.95 C 249.89 98.54 249.89 97.93 249.89 97.52 C 249.89 92.02 246.88 86.93 240.47 86.93 Z M 236.46 95.49 C 236.87 93.04 238.27 91.41 240.47 91.41 C 242.88 91.41 244.28 93.04 244.68 95.49 L 236.46 95.49 Z M 122.86 86.93 C 120.25 86.93 118.25 87.95 116.64 89.98 C 115.64 88.15 113.64 86.93 111.03 86.93 C 108.43 86.93 106.63 88.35 105.42 90.19 C 105.42 87.34 105.42 87.34 105.42 87.34 C 100.01 87.34 100.01 87.34 100.01 87.34 C 100.01 106.9 100.01 106.9 100.01 106.9 C 105.42 106.9 105.42 106.9 105.42 106.9 C 105.42 95.89 105.42 95.89 105.42 95.89 C 105.42 93.24 106.63 92.02 108.83 92.02 C 110.83 92.02 112.04 93.24 112.04 95.89 C 112.04 106.9 112.04 106.9 112.04 106.9 C 117.45 106.9 117.45 106.9 117.45 106.9 C 117.45 95.89 117.45 95.89 117.45 95.89 C 117.45 93.24 118.65 92.02 120.65 92.02 C 122.86 92.02 123.86 93.24 123.86 95.89 C 123.86 106.9 123.86 106.9 123.86 106.9 C 129.47 106.9 129.47 106.9 129.47 106.9 C 129.47 94.06 129.47 94.06 129.47 94.06 C 129.47 89.37 126.86 86.93 122.86 86.93 Z M 90.6 91.61 C 86.39 90.39 85.19 89.98 85.19 88.15 C 85.19 88.15 85.19 88.15 85.19 88.15 C 85.19 86.93 86.39 85.91 88.39 85.91 C 90.6 85.91 92.8 86.93 95.01 88.35 C 97.81 84.28 97.81 84.28 97.81 84.28 C 95.41 82.04 92.2 81.02 88.59 81.02 C 83.38 81.02 79.78 84.08 79.78 88.76 C 79.78 88.76 79.78 88.76 79.78 88.76 C 79.78 93.86 82.98 95.28 87.99 96.5 C 92.2 97.73 93.2 98.34 93.2 99.76 C 93.2 99.97 93.2 99.97 93.2 99.97 C 93.2 101.39 91.8 102.21 89.6 102.21 C 86.59 102.21 84.19 101.19 81.98 99.15 C 78.78 103.23 78.78 103.23 78.78 103.23 C 81.78 105.88 85.59 107.3 89.39 107.3 C 94.8 107.3 98.61 104.45 98.61 99.36 C 98.61 99.36 98.61 99.36 98.61 99.36 C 98.61 94.87 95.81 92.84 90.6 91.61 Z M 139.69 87.13 C 136.28 87.13 134.28 87.74 132.07 88.76 C 133.48 92.84 133.48 92.84 133.48 92.84 C 135.28 92.23 136.68 91.82 138.89 91.82 C 141.49 91.82 142.89 93.04 142.89 95.49 C 142.89 95.69 142.89 95.69 142.89 95.69 C 141.69 95.28 140.29 94.87 138.28 94.87 C 133.68 94.87 130.47 96.91 130.47 101.19 C 130.47 101.19 130.47 101.19 130.47 101.19 C 130.47 105.06 133.48 107.3 137.08 107.3 C 139.69 107.3 141.69 106.28 142.89 104.86 C 142.89 106.9 142.89 106.9 142.89 106.9 C 148.3 106.9 148.3 106.9 148.3 106.9 C 148.3 95.49 148.3 95.49 148.3 95.49 C 148.3 92.84 147.5 90.8 146.1 89.37 C 144.7 87.95 142.69 87.13 139.69 87.13 Z M 143.09 99.97 C 143.09 102.01 141.29 103.43 138.69 103.43 C 137.08 103.43 135.88 102.62 135.88 100.99 C 135.88 100.99 135.88 100.99 135.88 100.99 C 135.88 99.15 137.28 98.34 139.49 98.34 C 140.89 98.34 142.09 98.54 143.09 98.95 L 143.09 99.97 Z M 170.34 82.24 C 164.73 82.24 164.73 82.24 164.73 82.24 C 164.73 87.34 164.73 87.34 164.73 87.34 C 162.53 87.34 162.53 87.34 162.53 87.34 C 162.53 92.02 162.53 92.02 162.53 92.02 C 164.73 92.02 164.73 92.02 164.73 92.02 C 164.73 101.39 164.73 101.39 164.73 101.39 C 164.73 105.88 167.14 107.3 170.34 107.3 C 172.15 107.3 173.55 106.9 174.75 106.08 C 174.75 101.6 174.75 101.6 174.75 101.6 C 173.95 102.01 172.95 102.41 171.95 102.41 C 170.74 102.41 170.34 101.8 170.34 100.38 C 170.34 92.02 170.34 92.02 170.34 92.02 C 174.75 92.02 174.75 92.02 174.75 92.02 C 174.75 87.34 174.75 87.34 174.75 87.34 C 170.34 87.34 170.34 87.34 170.34 87.34 L 170.34 82.24 Z M 155.32 91.21 C 155.32 87.34 155.32 87.34 155.32 87.34 C 149.71 87.34 149.71 87.34 149.71 87.34 C 149.71 106.9 149.71 106.9 149.71 106.9 C 155.32 106.9 155.32 106.9 155.32 106.9 C 155.32 99.76 155.32 99.76 155.32 99.76 C 155.32 95.08 157.52 92.84 161.13 92.84 C 161.33 92.84 161.33 92.84 161.33 92.84 C 161.33 86.93 161.33 86.93 161.33 86.93 C 158.12 86.72 156.32 88.56 155.32 91.21 Z M 346.27 86.93 C 340.26 86.93 335.85 91.41 335.85 97.12 C 335.85 97.12 335.85 97.12 335.85 97.12 C 335.85 102.82 340.26 107.3 346.27 107.3 C 352.28 107.3 356.69 102.82 356.69 97.12 C 356.69 97.12 356.69 97.12 356.69 97.12 C 356.69 91.41 352.28 86.93 346.27 86.93 Z M 351.28 97.12 C 351.28 100.17 349.47 102.62 346.27 102.62 C 343.26 102.62 341.26 99.97 341.26 97.12 C 341.26 97.12 341.26 97.12 341.26 97.12 C 341.26 94.26 343.06 91.82 346.27 91.82 C 349.27 91.82 351.28 94.26 351.28 97.12 Z M 446.25 91.21 C 446.25 87.34 446.25 87.34 446.25 87.34 C 440.84 87.34 440.84 87.34 440.84 87.34 C 440.84 106.9 440.84 106.9 440.84 106.9 C 446.25 106.9 446.25 106.9 446.25 106.9 C 446.25 99.76 446.25 99.76 446.25 99.76 C 446.25 95.08 448.45 92.84 452.06 92.84 C 452.46 92.84 452.46 92.84 452.46 92.84 C 452.46 86.93 452.46 86.93 452.46 86.93 C 449.06 86.72 447.25 88.56 446.25 91.21 Z M 429.02 86.93 C 423.01 86.93 418.6 91.41 418.6 97.12 C 418.6 97.12 418.6 97.12 418.6 97.12 C 418.6 102.82 423.01 107.3 429.02 107.3 C 435.03 107.3 439.44 102.82 439.44 97.12 C 439.44 97.12 439.44 97.12 439.44 97.12 C 439.44 91.41 435.03 86.93 429.02 86.93 Z M 434.03 97.12 C 434.03 100.17 432.22 102.62 429.02 102.62 C 426.01 102.62 424.01 99.97 424.01 97.12 C 424.01 97.12 424.01 97.12 424.01 97.12 C 424.01 94.26 425.81 91.82 429.02 91.82 C 432.02 91.82 434.03 94.26 434.03 97.12 Z M 372.31 89.78 C 370.91 88.15 369.11 86.93 366.1 86.93 C 361.69 86.93 357.49 90.19 357.49 96.1 C 357.49 96.1 357.49 96.1 357.49 96.1 C 357.49 102.01 361.69 105.27 366.1 105.27 C 368.91 105.27 370.71 104.04 372.31 102.21 C 372.31 103.02 372.31 103.02 372.31 103.02 C 372.31 106.49 370.71 108.32 366.9 108.32 C 364.3 108.32 362.3 107.71 360.29 106.69 C 358.49 110.77 358.49 110.77 358.49 110.77 C 360.89 112.19 363.9 112.81 367.1 112.81 C 370.71 112.81 373.52 111.99 375.32 110.16 C 376.92 108.53 377.72 106.08 377.72 102.41 C 377.72 87.34 377.72 87.34 377.72 87.34 C 372.31 87.34 372.31 87.34 372.31 87.34 L 372.31 89.78 Z M 372.31 96.1 C 372.31 98.75 370.31 100.78 367.71 100.78 C 365.1 100.78 363.1 98.95 363.1 96.1 C 363.1 96.1 363.1 96.1 363.1 96.1 C 363.1 93.45 365.1 91.61 367.71 91.61 C 370.31 91.61 372.31 93.45 372.31 96.1 Z M 418.8 87.54 C 414.39 87.54 414.39 87.54 414.39 87.54 C 414.39 86.72 414.39 86.72 414.39 86.72 C 414.39 85.3 414.99 84.69 416.2 84.69 C 417.2 84.69 418 84.89 418.8 85.09 C 418.8 80.41 418.8 80.41 418.8 80.41 C 417.8 80.2 416.6 80 414.79 80 C 412.99 80 411.39 80.41 410.38 81.43 C 409.38 82.45 408.98 84.08 408.98 86.32 C 408.98 87.54 408.98 87.54 408.98 87.54 C 406.58 87.54 406.58 87.54 406.58 87.54 C 406.58 92.02 406.58 92.02 406.58 92.02 C 408.98 92.02 408.98 92.02 408.98 92.02 C 408.98 106.9 408.98 106.9 408.98 106.9 C 414.39 106.9 414.39 106.9 414.39 106.9 C 414.39 92.02 414.39 92.02 414.39 92.02 C 418.8 92.02 418.8 92.02 418.8 92.02 L 418.8 87.54 Z M 388.94 100.58 C 384.54 87.34 384.54 87.34 384.54 87.34 C 378.73 87.34 378.73 87.34 378.73 87.34 C 386.34 106.9 386.34 106.9 386.34 106.9 C 385.74 107.92 385.34 108.32 384.34 108.32 C 383.54 108.32 382.73 107.92 381.93 107.51 C 380.13 111.58 380.13 111.58 380.13 111.58 C 381.53 112.4 383.13 112.81 384.94 112.81 C 388.34 112.81 389.95 111.38 391.35 107.3 C 398.76 87.34 398.76 87.34 398.76 87.34 C 393.15 87.34 393.15 87.34 393.15 87.34 L 388.94 100.58 Z M 280.75 86.93 C 277.94 86.93 276.34 88.35 275.14 89.98 C 275.14 80.2 275.14 80.2 275.14 80.2 C 269.53 80.2 269.53 80.2 269.53 80.2 C 269.53 106.9 269.53 106.9 269.53 106.9 C 275.14 106.9 275.14 106.9 275.14 106.9 C 275.14 95.89 275.14 95.89 275.14 95.89 C 275.14 93.24 276.34 92.02 278.54 92.02 C 280.55 92.02 281.75 93.24 281.75 95.89 C 281.75 106.9 281.75 106.9 281.75 106.9 C 287.16 106.9 287.16 106.9 287.16 106.9 C 287.16 94.26 287.16 94.26 287.16 94.26 C 287.16 89.78 284.75 86.93 280.75 86.93 Z M 329.24 106.9 C 334.85 106.9 334.85 106.9 334.85 106.9 C 334.85 80.2 334.85 80.2 334.85 80.2 C 329.24 80.2 329.24 80.2 329.24 80.2 L 329.24 106.9 Z M 299.78 86.93 C 296.98 86.93 295.37 88.35 294.17 89.98 C 294.17 87.34 294.17 87.34 294.17 87.34 C 288.56 87.34 288.56 87.34 288.56 87.34 C 288.56 106.9 288.56 106.9 288.56 106.9 C 294.17 106.9 294.17 106.9 294.17 106.9 C 294.17 95.89 294.17 95.89 294.17 95.89 C 294.17 93.24 295.37 92.02 297.58 92.02 C 299.58 92.02 300.78 93.24 300.78 95.89 C 300.78 106.9 300.78 106.9 300.78 106.9 C 306.19 106.9 306.19 106.9 306.19 106.9 C 306.19 94.26 306.19 94.26 306.19 94.26 C 306.19 89.78 303.79 86.93 299.78 86.93 Z M 261.11 102.62 C 258.1 102.62 256.1 100.17 256.1 97.12 C 256.1 97.12 256.1 97.12 256.1 97.12 C 256.1 94.26 258.1 91.82 260.91 91.82 C 262.71 91.82 264.12 92.63 265.32 93.86 C 268.52 90.19 268.52 90.19 268.52 90.19 C 266.72 88.15 264.52 86.93 260.91 86.93 C 255.1 86.93 250.89 91.61 250.89 97.12 C 250.89 97.12 250.89 97.12 250.89 97.12 C 250.89 102.82 255.1 107.3 260.91 107.3 C 264.72 107.3 266.92 105.88 268.72 103.84 C 265.52 100.38 265.52 100.38 265.52 100.38 C 264.12 101.8 262.91 102.62 261.11 102.62 Z M 468.49 87.13 C 465.29 87.13 463.08 87.74 461.08 88.56 C 462.48 92.84 462.48 92.84 462.48 92.84 C 464.08 92.23 465.69 91.82 467.69 91.82 C 470.49 91.82 471.9 93.04 471.9 95.49 C 471.9 95.69 471.9 95.69 471.9 95.69 C 470.49 95.28 469.09 94.87 467.09 94.87 C 462.48 94.87 459.27 96.91 459.27 101.19 C 459.27 101.19 459.27 101.19 459.27 101.19 C 459.27 105.06 462.28 107.3 465.89 107.3 C 468.69 107.3 470.49 106.28 471.9 104.86 C 471.9 106.9 471.9 106.9 471.9 106.9 C 477.11 106.9 477.11 106.9 477.11 106.9 C 477.11 95.49 477.11 95.49 477.11 95.49 C 477.11 92.84 476.51 90.8 475.1 89.37 C 473.7 87.95 471.5 87.13 468.49 87.13 Z M 471.9 99.97 C 471.9 102.01 470.09 103.43 467.69 103.43 C 465.89 103.43 464.68 102.62 464.68 100.99 C 464.68 100.99 464.68 100.99 464.68 100.99 C 464.68 99.15 466.09 98.34 468.49 98.34 C 469.69 98.34 470.9 98.54 471.9 98.95 L 471.9 99.97 Z M 317.81 86.93 C 311.8 86.93 307.4 91.41 307.4 97.12 C 307.4 97.12 307.4 97.12 307.4 97.12 C 307.4 102.82 311.8 107.3 317.81 107.3 C 323.83 107.3 328.23 102.82 328.23 97.12 C 328.23 97.12 328.23 97.12 328.23 97.12 C 328.23 91.41 323.83 86.93 317.81 86.93 Z M 322.82 97.12 C 322.82 100.17 321.02 102.62 317.81 102.62 C 314.81 102.62 312.81 99.97 312.81 97.12 C 312.81 97.12 312.81 97.12 312.81 97.12 C 312.81 94.26 314.61 91.82 317.81 91.82 C 320.82 91.82 322.82 94.26 322.82 97.12 Z" fill="#4D144A" stroke="none" />
</g></svg>