<?xml version='1.0' encoding='utf-8'?>
<svg xmlns="http://www.w3.org/2000/svg" data-icon-style="preserve-color" viewBox="0 0 1279.67 720" width="1279.67" height="720"><g id="starter-layered_layout_01_slideLayout1_ill01_layout-shape-14" data-name="Group 13" transform="rotate(270 1226.11 320.53)">
<g id="starter-layered_layout_01_slideLayout1_ill01_layout-shape-15" data-name="Rectangle 14">
<rect x="1065.57" y="266.97" width="321.07" height="107.12" fill="#E1251B" stroke="none" />
</g>
<g id="starter-layered_layout_01_slideLayout1_ill01_layout-shape-16" data-name="Freeform 7">
<path d="M 1205.49 302.97 C 1200.77 302.97 1195.41 305.18 1192.09 309.6 C 1192.09 309.6 1192.09 309.6 1192.09 309.6 C 1192.09 309.6 1192.09 309.6 1192.09 309.6 C 1192.09 303.68 1192.09 303.68 1192.09 303.68 C 1180.8 303.68 1180.8 303.68 1180.8 303.68 C 1180.8 344.87 1180.8 344.87 1180.8 344.87 C 1192.09 344.87 1192.09 344.87 1192.09 344.87 C 1192.09 321.41 1192.09 321.41 1192.09 321.41 C 1192.09 317.19 1195.35 312.72 1201.43 312.72 C 1206.09 312.72 1210.91 315.98 1210.91 321.41 C 1210.91 344.87 1210.91 344.87 1210.91 344.87 C 1222.2 344.87 1222.2 344.87 1222.2 344.87 C 1222.2 319.35 1222.2 319.35 1222.2 319.35 C 1222.2 309.85 1215.42 302.97 1205.49 302.97" fill="#FFFFFF" stroke="none" />
</g>
<g id="starter-layered_layout_01_slideLayout1_ill01_layout-shape-17" data-name="Freeform 8">
<path d="M 1302.47 303.68 L 1292.27 331.74 L 1282.03 303.68 L 1269.15 303.68 L 1286.08 344.87 L 1298.46 344.87 L 1315.39 303.68 L 1302.47 303.68 Z" fill="#FFFFFF" stroke="none" />
</g>
<g id="starter-layered_layout_01_slideLayout1_ill01_layout-shape-18" data-name="Freeform 9">
<path d="M 1168.77 332.21 C 1164.01 335.73 1161.3 336.58 1156.98 336.58 C 1153.07 336.58 1150.01 335.38 1147.85 333.22 C 1176.75 321.21 1176.75 321.21 1176.75 321.21 C 1176.1 316.79 1174.44 312.77 1171.83 309.76 C 1168.02 305.33 1162.4 302.97 1155.58 302.97 C 1143.14 302.97 1133.81 312.17 1133.81 324.28 C 1133.81 336.74 1143.19 345.58 1156.83 345.58 C 1164.46 345.58 1172.28 341.96 1175.95 337.69 L 1168.77 332.21 Z M 1147.1 316.09 C 1149.01 313.52 1152.07 311.97 1155.78 311.97 C 1159.84 311.97 1162.95 314.33 1164.51 317.74 C 1144.79 325.93 1144.79 325.93 1144.79 325.93 C 1144.24 321.76 1145.35 318.45 1147.1 316.09 Z" fill="#FFFFFF" stroke="none" />
</g>
<g id="starter-layered_layout_01_slideLayout1_ill01_layout-shape-19" data-name="Freeform 10">
<path d="M 1132.68 334.46 L 1107.01 334.46 L 1107.01 291.39 L 1095.55 291.39 L 1095.55 344.87 L 1132.68 344.87 L 1132.68 334.46 Z" fill="#FFFFFF" stroke="none" />
</g>
<g id="starter-layered_layout_01_slideLayout1_ill01_layout-shape-20" data-name="Freeform 10">
<path d="M 1335.66 345.58 C 1323.32 345.58 1313.64 336.33 1313.64 324.28 C 1313.64 312.32 1323.37 302.97 1335.81 302.97 C 1348.15 302.97 1357.83 312.22 1357.83 324.28 C 1357.83 336.23 1348.1 345.58 1335.66 345.58 M 1335.66 312.67 C 1329.34 312.67 1324.77 317.44 1324.77 324.28 C 1324.77 330.76 1329.64 335.88 1335.81 335.88 C 1342.13 335.88 1346.7 330.96 1346.7 324.28 C 1346.7 317.79 1341.83 312.67 1335.66 312.67" fill="#FFFFFF" stroke="none" />
</g>
<g id="starter-layered_layout_01_slideLayout1_ill01_layout-shape-21" data-name="Freeform 11">
<path d="M 1248.69 345.58 C 1236.35 345.58 1226.67 336.33 1226.67 324.28 C 1226.67 312.32 1236.45 302.97 1248.84 302.97 C 1261.23 302.97 1270.91 312.22 1270.91 324.28 C 1270.91 336.23 1261.13 345.58 1248.69 345.58 M 1248.69 312.67 C 1242.42 312.67 1237.81 317.44 1237.81 324.28 C 1237.81 330.76 1242.67 335.88 1248.84 335.88 C 1255.16 335.88 1259.77 330.96 1259.77 324.28 C 1259.77 317.79 1254.91 312.67 1248.69 312.67" fill="#FFFFFF" stroke="none" />
</g>
</g>
</svg>