<?xml version='1.0' encoding='utf-8'?>
<svg xmlns="http://www.w3.org/2000/svg" data-icon-style="preserve-color" viewBox="0 0 1279.67 720" width="1279.67" height="720"><g id="starter-layered_layout_28_slideLayout28_ill01_layout-shape-76" data-name="Group 75">
<g id="starter-layered_layout_28_slideLayout28_ill01_layout-shape-85" data-name="Freeform 5">
<path d="M 1045.41 123.22 C 1049.17 118.74 1049.17 118.74 1049.17 118.74 C 1051.76 120.87 1054.48 122.22 1057.74 122.22 C 1060.32 122.22 1061.86 121.23 1061.86 119.56 C 1061.86 119.46 1061.86 119.46 1061.86 119.46 C 1061.86 117.84 1060.91 117.02 1056.11 115.8 C 1050.31 114.35 1046.59 112.73 1046.59 107.03 C 1046.59 106.98 1046.59 106.98 1046.59 106.98 C 1046.59 101.78 1050.76 98.35 1056.61 98.35 C 1060.82 98.35 1064.4 99.66 1067.3 101.96 C 1063.99 106.71 1063.99 106.71 1063.99 106.71 C 1061.46 104.95 1058.96 103.91 1056.56 103.91 C 1054.11 103.91 1052.85 104.99 1052.85 106.4 C 1052.85 106.49 1052.85 106.49 1052.85 106.49 C 1052.85 108.34 1054.07 108.97 1059.05 110.24 C 1064.85 111.78 1068.16 113.86 1068.16 118.83 C 1068.16 118.92 1068.16 118.92 1068.16 118.92 C 1068.16 124.62 1063.81 127.79 1057.6 127.79 C 1053.25 127.79 1048.86 126.29 1045.41 123.22 Z" stroke="none" fill="none" />
</g>
<g id="starter-layered_layout_28_slideLayout28_ill01_layout-shape-86" data-name="Freeform 6">
<path d="M 1069.64 105.44 C 1075.9 105.44 1075.9 105.44 1075.9 105.44 C 1075.9 108.56 1075.9 108.56 1075.9 108.56 C 1077.35 106.71 1079.21 105.04 1082.39 105.04 C 1085.25 105.04 1087.42 106.3 1088.6 108.52 C 1090.51 106.26 1092.82 105.04 1095.82 105.04 C 1100.44 105.04 1103.26 107.84 1103.26 113.08 C 1103.26 127.37 1103.26 127.37 1103.26 127.37 C 1097 127.37 1097 127.37 1097 127.37 C 1097 115.16 1097 115.16 1097 115.16 C 1097 112.23 1095.68 110.69 1093.37 110.69 C 1091.01 110.69 1089.56 112.23 1089.56 115.16 C 1089.56 127.37 1089.56 127.37 1089.56 127.37 C 1083.34 127.37 1083.34 127.37 1083.34 127.37 C 1083.34 115.16 1083.34 115.16 1083.34 115.16 C 1083.34 112.23 1082.03 110.69 1079.67 110.69 C 1077.35 110.69 1075.9 112.23 1075.9 115.16 C 1075.9 127.37 1075.9 127.37 1075.9 127.37 C 1069.64 127.37 1069.64 127.37 1069.64 127.37 L 1069.64 105.44 Z" stroke="none" fill="none" />
</g>
<g id="starter-layered_layout_28_slideLayout28_ill01_layout-shape-87" data-name="Freeform 7">
<path d="M 1104.55 121.09 C 1104.55 121 1104.55 121 1104.55 121 C 1104.55 116.21 1108.17 113.99 1113.38 113.99 C 1115.6 113.99 1117.24 114.36 1118.78 114.9 C 1118.78 114.54 1118.78 114.54 1118.78 114.54 C 1118.78 111.96 1117.19 110.51 1114.06 110.51 C 1111.66 110.51 1109.99 110.96 1107.99 111.73 C 1106.45 106.99 1106.45 106.99 1106.45 106.99 C 1108.85 105.9 1111.21 105.22 1114.97 105.22 C 1118.37 105.22 1120.81 106.13 1122.4 107.66 C 1124.03 109.29 1124.76 111.73 1124.76 114.67 C 1124.76 127.38 1124.76 127.38 1124.76 127.38 C 1118.73 127.38 1118.73 127.38 1118.73 127.38 C 1118.73 125.03 1118.73 125.03 1118.73 125.03 C 1117.24 126.7 1115.11 127.79 1112.07 127.79 C 1107.95 127.79 1104.55 125.43 1104.55 121.09 Z M 1118.87 119.65 C 1118.87 118.56 1118.87 118.56 1118.87 118.56 C 1117.78 118.06 1116.42 117.75 1114.88 117.75 C 1112.21 117.75 1110.58 118.79 1110.58 120.78 C 1110.58 120.87 1110.58 120.87 1110.58 120.87 C 1110.58 122.54 1111.98 123.49 1113.97 123.49 C 1116.87 123.49 1118.87 121.91 1118.87 119.65 Z" stroke="none" fill="none" />
</g>
<g id="starter-layered_layout_28_slideLayout28_ill01_layout-shape-88" data-name="Freeform 8">
<path d="M 1126.51 105.44 C 1132.78 105.44 1132.78 105.44 1132.78 105.44 C 1132.78 109.87 1132.78 109.87 1132.78 109.87 C 1134.06 106.84 1136.1 104.85 1139.83 105.03 C 1139.83 111.54 1139.83 111.54 1139.83 111.54 C 1139.47 111.54 1139.47 111.54 1139.47 111.54 C 1135.33 111.54 1132.78 114.03 1132.78 119.28 C 1132.78 127.37 1132.78 127.37 1132.78 127.37 C 1126.51 127.37 1126.51 127.37 1126.51 127.37 L 1126.51 105.44 Z" stroke="none" fill="none" />
</g>
<g id="starter-layered_layout_28_slideLayout28_ill01_layout-shape-89" data-name="Freeform 9">
<path d="M 1143.66 121.18 C 1143.66 110.77 1143.66 110.77 1143.66 110.77 C 1141.03 110.77 1141.03 110.77 1141.03 110.77 C 1141.03 105.43 1141.03 105.43 1141.03 105.43 C 1143.66 105.43 1143.66 105.43 1143.66 105.43 C 1143.66 99.82 1143.66 99.82 1143.66 99.82 C 1149.92 99.82 1149.92 99.82 1149.92 99.82 C 1149.92 105.43 1149.92 105.43 1149.92 105.43 C 1155.09 105.43 1155.09 105.43 1155.09 105.43 C 1155.09 110.77 1155.09 110.77 1155.09 110.77 C 1149.92 110.77 1149.92 110.77 1149.92 110.77 C 1149.92 120.14 1149.92 120.14 1149.92 120.14 C 1149.92 121.59 1150.51 122.26 1151.91 122.26 C 1153.05 122.26 1154.09 121.99 1155 121.5 C 1155 126.47 1155 126.47 1155 126.47 C 1153.68 127.29 1152.14 127.74 1150.05 127.74 C 1146.25 127.74 1143.66 126.25 1143.66 121.18 Z" stroke="none" fill="none" />
</g>
<g id="starter-layered_layout_28_slideLayout28_ill01_layout-shape-90" data-name="Freeform 10">
<path d="M 1155.92 116.53 C 1155.92 116.48 1155.92 116.48 1155.92 116.48 C 1155.92 110.19 1160.41 105.04 1166.81 105.04 C 1174.15 105.04 1177.51 110.74 1177.51 116.93 C 1177.51 117.43 1177.51 118.02 1177.47 118.61 C 1162.13 118.61 1162.13 118.61 1162.13 118.61 C 1162.77 121.41 1164.72 122.9 1167.53 122.9 C 1169.62 122.9 1171.12 122.22 1172.84 120.64 C 1176.42 123.81 1176.42 123.81 1176.42 123.81 C 1174.38 126.34 1171.43 127.88 1167.44 127.88 C 1160.82 127.88 1155.92 123.26 1155.92 116.53 Z M 1171.43 114.72 C 1171.07 111.91 1169.44 110.06 1166.81 110.06 C 1164.22 110.06 1162.54 111.87 1162.04 114.72 L 1171.43 114.72 Z" stroke="none" fill="none" />
</g>
<g id="starter-layered_layout_28_slideLayout28_ill01_layout-shape-91" data-name="Freeform 11">
<path d="M 1178.81 105.44 C 1185.06 105.44 1185.06 105.44 1185.06 105.44 C 1185.06 109.87 1185.06 109.87 1185.06 109.87 C 1186.32 106.84 1188.36 104.85 1192.08 105.03 C 1192.08 111.54 1192.08 111.54 1192.08 111.54 C 1191.71 111.54 1191.71 111.54 1191.71 111.54 C 1187.59 111.54 1185.06 114.03 1185.06 119.28 C 1185.06 127.37 1185.06 127.37 1185.06 127.37 C 1178.81 127.37 1178.81 127.37 1178.81 127.37 L 1178.81 105.44 Z" stroke="none" fill="none" />
</g>
<g id="starter-layered_layout_28_slideLayout28_ill01_layout-shape-92" data-name="Freeform 12">
<path d="M 988.49 159.94 C 988.49 149.53 988.49 149.53 988.49 149.53 C 985.86 149.53 985.86 149.53 985.86 149.53 C 985.86 144.19 985.86 144.19 985.86 144.19 C 988.49 144.19 988.49 144.19 988.49 144.19 C 988.49 138.58 988.49 138.58 988.49 138.58 C 994.7 138.58 994.7 138.58 994.7 138.58 C 994.7 144.19 994.7 144.19 994.7 144.19 C 999.92 144.19 999.92 144.19 999.92 144.19 C 999.92 149.53 999.92 149.53 999.92 149.53 C 994.7 149.53 994.7 149.53 994.7 149.53 C 994.7 158.9 994.7 158.9 994.7 158.9 C 994.7 160.35 995.34 161.03 996.74 161.03 C 997.88 161.03 998.92 160.75 999.83 160.26 C 999.83 165.28 999.83 165.28 999.83 165.28 C 998.51 166.05 996.97 166.55 994.88 166.55 C 991.08 166.55 988.49 165.01 988.49 159.94 Z" stroke="none" fill="none" />
</g>
<g id="starter-layered_layout_28_slideLayout28_ill01_layout-shape-93" data-name="Freeform 13">
<path d="M 1000.8 155.26 C 1000.8 155.22 1000.8 155.22 1000.8 155.22 C 1000.8 148.92 1005.29 143.75 1011.68 143.75 C 1019.03 143.75 1022.43 149.46 1022.43 155.67 C 1022.43 156.17 1022.39 156.76 1022.34 157.35 C 1007.01 157.35 1007.01 157.35 1007.01 157.35 C 1007.65 160.16 1009.6 161.65 1012.41 161.65 C 1014.5 161.65 1015.99 160.97 1017.72 159.39 C 1021.3 162.56 1021.3 162.56 1021.3 162.56 C 1019.26 165.1 1016.31 166.64 1012.32 166.64 C 1005.69 166.64 1000.8 162.02 1000.8 155.26 Z M 1016.36 153.45 C 1015.95 150.64 1014.31 148.78 1011.68 148.78 C 1009.1 148.78 1007.42 150.59 1006.92 153.45 L 1016.36 153.45 Z" stroke="none" fill="none" />
</g>
<g id="starter-layered_layout_28_slideLayout28_ill01_layout-shape-94" data-name="Freeform 14">
<path d="M 1023.4 155.26 C 1023.4 155.22 1023.4 155.22 1023.4 155.22 C 1023.4 148.92 1028.21 143.75 1034.91 143.75 C 1039.04 143.75 1041.62 145.16 1043.7 147.47 C 1039.85 151.55 1039.85 151.55 1039.85 151.55 C 1038.49 150.05 1037.09 149.14 1034.87 149.14 C 1031.74 149.14 1029.52 151.86 1029.52 155.13 C 1029.52 155.22 1029.52 155.22 1029.52 155.22 C 1029.52 158.57 1031.7 161.29 1035.1 161.29 C 1037.22 161.29 1038.63 160.38 1040.17 158.93 C 1043.8 162.6 1043.8 162.6 1043.8 162.6 C 1041.67 164.96 1039.22 166.64 1034.82 166.64 C 1028.21 166.64 1023.4 161.56 1023.4 155.26 Z" stroke="none" fill="none" />
</g>
<g id="starter-layered_layout_28_slideLayout28_ill01_layout-shape-95" data-name="Freeform 15">
<path d="M 1044.81 136.28 C 1051.06 136.28 1051.06 136.28 1051.06 136.28 C 1051.06 147.31 1051.06 147.31 1051.06 147.31 C 1052.47 145.46 1054.33 143.78 1057.5 143.78 C 1062.21 143.78 1064.97 146.91 1064.97 151.93 C 1064.97 166.13 1064.97 166.13 1064.97 166.13 C 1058.72 166.13 1058.72 166.13 1058.72 166.13 C 1058.72 153.92 1058.72 153.92 1058.72 153.92 C 1058.72 150.93 1057.32 149.44 1054.96 149.44 C 1052.56 149.44 1051.06 150.93 1051.06 153.92 C 1051.06 166.13 1051.06 166.13 1051.06 166.13 C 1044.81 166.13 1044.81 166.13 1044.81 166.13 L 1044.81 136.28 Z" stroke="none" fill="none" />
</g>
<g id="starter-layered_layout_28_slideLayout28_ill01_layout-shape-96" data-name="Freeform 16">
<path d="M 1066.59 144.16 C 1072.8 144.16 1072.8 144.16 1072.8 144.16 C 1072.8 147.28 1072.8 147.28 1072.8 147.28 C 1074.25 145.43 1076.1 143.75 1079.23 143.75 C 1083.94 143.75 1086.7 146.88 1086.7 151.91 C 1086.7 166.13 1086.7 166.13 1086.7 166.13 C 1080.45 166.13 1080.45 166.13 1080.45 166.13 C 1080.45 153.9 1080.45 153.9 1080.45 153.9 C 1080.45 150.91 1079.09 149.41 1076.69 149.41 C 1074.34 149.41 1072.8 150.91 1072.8 153.9 C 1072.8 166.13 1072.8 166.13 1072.8 166.13 C 1066.59 166.13 1066.59 166.13 1066.59 166.13 L 1066.59 144.16 Z" stroke="none" fill="none" />
</g>
<g id="starter-layered_layout_28_slideLayout28_ill01_layout-shape-97" data-name="Freeform 17">
<path d="M 1088 155.26 C 1088 155.22 1088 155.22 1088 155.22 C 1088 148.87 1093.08 143.75 1099.93 143.75 C 1106.77 143.75 1111.81 148.78 1111.81 155.13 C 1111.81 155.22 1111.81 155.22 1111.81 155.22 C 1111.81 161.52 1106.73 166.64 1099.88 166.64 C 1093.03 166.64 1088 161.61 1088 155.26 Z M 1105.64 155.26 C 1105.64 155.22 1105.64 155.22 1105.64 155.22 C 1105.64 151.95 1103.33 149.14 1099.88 149.14 C 1096.3 149.14 1094.17 151.86 1094.17 155.13 C 1094.17 155.22 1094.17 155.22 1094.17 155.22 C 1094.17 158.43 1096.48 161.29 1099.93 161.29 C 1103.51 161.29 1105.64 158.53 1105.64 155.26 Z" stroke="none" fill="none" />
</g>
<g id="starter-layered_layout_28_slideLayout28_ill01_layout-shape-98" data-name="Rectangle 18">
<rect x="1113.01" y="136.28" width="6.24" height="29.85" stroke="none" fill="none" />
</g>
<g id="starter-layered_layout_28_slideLayout28_ill01_layout-shape-99" data-name="Freeform 19">
<path d="M 1120.46 155.26 C 1120.46 155.22 1120.46 155.22 1120.46 155.22 C 1120.46 148.87 1125.58 143.75 1132.43 143.75 C 1139.23 143.75 1144.31 148.78 1144.31 155.13 C 1144.31 155.22 1144.31 155.22 1144.31 155.22 C 1144.31 161.52 1139.19 166.64 1132.34 166.64 C 1125.54 166.64 1120.46 161.61 1120.46 155.26 Z M 1138.15 155.26 C 1138.15 155.22 1138.15 155.22 1138.15 155.22 C 1138.15 151.95 1135.79 149.14 1132.34 149.14 C 1128.76 149.14 1126.62 151.86 1126.62 155.13 C 1126.62 155.22 1126.62 155.22 1126.62 155.22 C 1126.62 158.43 1128.98 161.29 1132.43 161.29 C 1136.01 161.29 1138.15 158.53 1138.15 155.26 Z" stroke="none" fill="none" />
</g>
<g id="starter-layered_layout_28_slideLayout28_ill01_layout-shape-100" data-name="Freeform 20">
<path d="M 1146.33 170.47 C 1148.46 165.8 1148.46 165.8 1148.46 165.8 C 1150.72 167.07 1152.99 167.79 1155.89 167.79 C 1160.15 167.79 1162.15 165.76 1162.15 161.82 C 1162.15 160.78 1162.15 160.78 1162.15 160.78 C 1160.33 162.99 1158.29 164.31 1154.98 164.31 C 1149.86 164.31 1145.24 160.59 1145.24 154.07 C 1145.24 153.98 1145.24 153.98 1145.24 153.98 C 1145.24 147.46 1149.95 143.75 1154.98 143.75 C 1158.38 143.75 1160.38 145.2 1162.1 147.01 C 1162.1 144.16 1162.1 144.16 1162.1 144.16 C 1168.31 144.16 1168.31 144.16 1168.31 144.16 C 1168.31 161.18 1168.31 161.18 1168.31 161.18 C 1168.31 165.12 1167.36 167.98 1165.55 169.83 C 1163.46 171.87 1160.33 172.78 1156.07 172.78 C 1152.49 172.78 1149.14 171.96 1146.33 170.47 Z M 1162.15 154.07 C 1162.15 153.98 1162.15 153.98 1162.15 153.98 C 1162.15 151 1159.83 148.91 1156.8 148.91 C 1153.76 148.91 1151.45 151 1151.45 153.98 C 1151.45 154.07 1151.45 154.07 1151.45 154.07 C 1151.45 157.11 1153.76 159.15 1156.8 159.15 C 1159.83 159.15 1162.15 157.06 1162.15 154.07 Z" stroke="none" fill="none" />
</g>
<g id="starter-layered_layout_28_slideLayout28_ill01_layout-shape-101" data-name="Freeform 21">
<path d="M 1185.78 144.17 C 1192.26 144.17 1192.26 144.17 1192.26 144.17 C 1183.83 166.66 1183.83 166.66 1183.83 166.66 C 1182.15 171.15 1180.34 172.82 1176.58 172.82 C 1174.36 172.82 1172.68 172.23 1171.05 171.28 C 1173.14 166.8 1173.14 166.8 1173.14 166.8 C 1173.95 167.3 1174.99 167.66 1175.81 167.66 C 1176.9 167.66 1177.44 167.34 1177.98 166.21 C 1169.37 144.17 1169.37 144.17 1169.37 144.17 C 1175.99 144.17 1175.99 144.17 1175.99 144.17 C 1180.98 159.15 1180.98 159.15 1180.98 159.15 L 1185.78 144.17 Z" stroke="none" fill="none" />
</g>
<g id="starter-layered_layout_28_slideLayout28_ill01_layout-shape-102" data-name="Freeform 22">
<path d="M 1094.6 190.61 C 1092.02 190.61 1092.02 190.61 1092.02 190.61 C 1092.02 185.49 1092.02 185.49 1092.02 185.49 C 1094.6 185.49 1094.6 185.49 1094.6 185.49 C 1094.6 184.09 1094.6 184.09 1094.6 184.09 C 1094.6 181.69 1095.24 179.92 1096.37 178.79 C 1097.55 177.61 1099.23 177.07 1101.45 177.07 C 1103.4 177.07 1104.71 177.29 1105.84 177.66 C 1105.84 182.82 1105.84 182.82 1105.84 182.82 C 1104.98 182.5 1104.12 182.28 1103.03 182.28 C 1101.58 182.28 1100.77 183.05 1100.77 184.68 C 1100.77 185.54 1100.77 185.54 1100.77 185.54 C 1105.84 185.54 1105.84 185.54 1105.84 185.54 C 1105.84 190.61 1105.84 190.61 1105.84 190.61 C 1100.86 190.61 1100.86 190.61 1100.86 190.61 C 1100.86 207.29 1100.86 207.29 1100.86 207.29 C 1094.6 207.29 1094.6 207.29 1094.6 207.29 L 1094.6 190.61 Z" stroke="none" fill="none" />
</g>
<g id="starter-layered_layout_28_slideLayout28_ill01_layout-shape-103" data-name="Freeform 23">
<path d="M 1105.75 196.4 C 1105.75 196.31 1105.75 196.31 1105.75 196.31 C 1105.75 190.02 1110.83 184.86 1117.68 184.86 C 1124.48 184.86 1129.56 189.93 1129.56 196.22 C 1129.56 196.31 1129.56 196.31 1129.56 196.31 C 1129.56 202.6 1124.44 207.75 1117.59 207.75 C 1110.79 207.75 1105.75 202.69 1105.75 196.4 Z M 1123.4 196.4 C 1123.4 196.31 1123.4 196.31 1123.4 196.31 C 1123.4 193.1 1121.04 190.25 1117.59 190.25 C 1114.05 190.25 1111.88 193.01 1111.88 196.22 C 1111.88 196.31 1111.88 196.31 1111.88 196.31 C 1111.88 199.56 1114.23 202.37 1117.68 202.37 C 1121.26 202.37 1123.4 199.61 1123.4 196.4 Z" stroke="none" fill="none" />
</g>
<g id="starter-layered_layout_28_slideLayout28_ill01_layout-shape-104" data-name="Freeform 24">
<path d="M 1130.95 185.32 C 1137.22 185.32 1137.22 185.32 1137.22 185.32 C 1137.22 189.71 1137.22 189.71 1137.22 189.71 C 1138.5 186.67 1140.54 184.73 1144.27 184.86 C 1144.27 191.39 1144.27 191.39 1144.27 191.39 C 1143.95 191.39 1143.95 191.39 1143.95 191.39 C 1139.77 191.39 1137.22 193.92 1137.22 199.13 C 1137.22 207.29 1137.22 207.29 1137.22 207.29 C 1130.95 207.29 1130.95 207.29 1130.95 207.29 L 1130.95 185.32 Z" stroke="none" fill="none" />
</g>
<g id="starter-layered_layout_28_slideLayout28_ill01_layout-shape-105" data-name="Freeform 25">
<path d="M 1152.22 200.92 C 1152.22 200.83 1152.22 200.83 1152.22 200.83 C 1152.22 196.08 1155.9 193.87 1161.07 193.87 C 1163.3 193.87 1164.93 194.23 1166.48 194.77 C 1166.48 194.36 1166.48 194.36 1166.48 194.36 C 1166.48 191.79 1164.89 190.39 1161.76 190.39 C 1159.35 190.39 1157.67 190.84 1155.67 191.56 C 1154.13 186.81 1154.13 186.81 1154.13 186.81 C 1156.53 185.73 1158.94 185.05 1162.66 185.05 C 1166.07 185.05 1168.52 185.95 1170.11 187.49 C 1171.75 189.16 1172.47 191.56 1172.47 194.5 C 1172.47 207.25 1172.47 207.25 1172.47 207.25 C 1166.43 207.25 1166.43 207.25 1166.43 207.25 C 1166.43 204.86 1166.43 204.86 1166.43 204.86 C 1164.93 206.53 1162.85 207.66 1159.8 207.66 C 1155.63 207.66 1152.22 205.26 1152.22 200.92 Z M 1166.57 199.52 C 1166.57 198.39 1166.57 198.39 1166.57 198.39 C 1165.48 197.89 1164.12 197.58 1162.57 197.58 C 1159.89 197.58 1158.26 198.66 1158.26 200.6 C 1158.26 200.7 1158.26 200.7 1158.26 200.7 C 1158.26 202.37 1159.67 203.36 1161.66 203.36 C 1164.57 203.36 1166.57 201.74 1166.57 199.52 Z" stroke="none" fill="none" />
</g>
<g id="starter-layered_layout_28_slideLayout28_ill01_layout-shape-106" data-name="Rectangle 26">
<rect x="1175.06" y="177.34" width="6.24" height="29.95" stroke="none" fill="none" />
</g>
<g id="starter-layered_layout_28_slideLayout28_ill01_layout-shape-107" data-name="Rectangle 27">
<rect x="1183.89" y="177.34" width="6.2" height="29.95" stroke="none" fill="none" />
</g>
</g>
</svg>