<?xml version='1.0' encoding='utf-8'?>
<svg xmlns="http://www.w3.org/2000/svg" data-icon-style="preserve-color" viewBox="0 0 1279.67 720" width="1279.67" height="720"><g id="starter-layered_layout_28_slideLayout28_ill02_layout-shape-3" data-name="Group 2">
<g id="starter-layered_layout_28_slideLayout28_ill02_layout-shape-77" data-name="Rectangle 28">
<rect x="1213.25" y="80.54" width="66.58" height="199.34" fill="#E1251B" stroke="none" />
</g>
<g id="starter-layered_layout_28_slideLayout28_ill02_layout-shape-78" data-name="Group 77">
<g id="starter-layered_layout_28_slideLayout28_ill02_layout-shape-79" data-name="Freeform 29">
<path d="M 1235.72 193.01 C 1235.72 195.95 1237.08 199.3 1239.8 201.34 C 1239.8 201.34 1239.8 201.34 1239.8 201.34 C 1239.8 201.34 1239.8 201.34 1239.8 201.34 C 1236.13 201.34 1236.13 201.34 1236.13 201.34 C 1236.13 208.4 1236.13 208.4 1236.13 208.4 C 1261.75 208.4 1261.75 208.4 1261.75 208.4 C 1261.75 201.34 1261.75 201.34 1261.75 201.34 C 1247.2 201.34 1247.2 201.34 1247.2 201.34 C 1244.57 201.34 1241.76 199.35 1241.76 195.59 C 1241.76 192.65 1243.8 189.66 1247.2 189.66 C 1261.75 189.66 1261.75 189.66 1261.75 189.66 C 1261.75 182.65 1261.75 182.65 1261.75 182.65 C 1245.88 182.65 1245.88 182.65 1245.88 182.65 C 1239.99 182.65 1235.72 186.86 1235.72 193.01" fill="#FFFFFF" stroke="none" />
</g>
<g id="starter-layered_layout_28_slideLayout28_ill02_layout-shape-80" data-name="Freeform 30">
<path d="M 1236.14 132.72 L 1253.57 139.04 L 1236.14 145.46 L 1236.14 153.44 L 1261.75 142.92 L 1261.75 135.21 L 1236.14 124.69 L 1236.14 132.72 Z" fill="#FFFFFF" stroke="none" />
</g>
<g id="starter-layered_layout_28_slideLayout28_ill02_layout-shape-81" data-name="Freeform 31">
<path d="M 1253.91 215.87 C 1256.09 218.81 1256.59 220.49 1256.59 223.21 C 1256.59 225.61 1255.87 227.51 1254.55 228.87 C 1247.06 210.89 1247.06 210.89 1247.06 210.89 C 1244.3 211.3 1241.8 212.34 1239.9 213.97 C 1237.18 216.32 1235.72 219.81 1235.72 224.07 C 1235.72 231.81 1241.44 237.61 1248.97 237.61 C 1256.68 237.61 1262.22 231.81 1262.22 223.3 C 1262.22 218.54 1259.95 213.7 1257.32 211.43 L 1253.91 215.87 Z M 1243.84 229.36 C 1242.26 228.14 1241.3 226.24 1241.3 223.93 C 1241.3 221.39 1242.76 219.49 1244.89 218.5 C 1250.01 230.77 1250.01 230.77 1250.01 230.77 C 1247.38 231.13 1245.34 230.45 1243.84 229.36 Z" fill="#FFFFFF" stroke="none" />
</g>
<g id="starter-layered_layout_28_slideLayout28_ill02_layout-shape-82" data-name="Freeform 32">
<path d="M 1255.28 238.3 L 1255.28 254.26 L 1228.46 254.26 L 1228.46 261.37 L 1261.75 261.37 L 1261.75 238.3 L 1255.28 238.3 Z" fill="#FFFFFF" stroke="none" />
</g>
<g id="starter-layered_layout_28_slideLayout28_ill02_layout-shape-83" data-name="Freeform 33">
<path d="M 1262.22 112.1 C 1262.22 119.79 1256.46 125.8 1248.97 125.8 C 1241.53 125.8 1235.72 119.74 1235.72 112.01 C 1235.72 104.36 1241.44 98.35 1248.97 98.35 C 1256.36 98.35 1262.22 104.36 1262.22 112.1 M 1241.76 112.1 C 1241.76 116.03 1244.71 118.88 1248.97 118.88 C 1253.01 118.88 1256.18 115.85 1256.18 112.01 C 1256.18 108.12 1253.1 105.27 1248.97 105.27 C 1244.93 105.27 1241.76 108.25 1241.76 112.1" fill="#FFFFFF" stroke="none" />
</g>
<g id="starter-layered_layout_28_slideLayout28_ill02_layout-shape-84" data-name="Freeform 34">
<path d="M 1262.22 166.18 C 1262.22 173.82 1256.46 179.84 1248.97 179.84 C 1241.53 179.84 1235.72 173.82 1235.72 166.08 C 1235.72 158.4 1241.44 152.38 1248.97 152.38 C 1256.36 152.38 1262.22 158.44 1262.22 166.18 M 1241.76 166.18 C 1241.76 170.07 1244.71 172.91 1248.97 172.91 C 1253.01 172.91 1256.18 169.93 1256.18 166.08 C 1256.18 162.15 1253.1 159.3 1248.97 159.3 C 1244.93 159.3 1241.76 162.33 1241.76 166.18" fill="#FFFFFF" stroke="none" />
</g>
</g>
</g>
</svg>